<?xml version="1.0" standalone="no"?>
<!DOCTYPE svg PUBLIC "-//W3C//DTD SVG 20010904//EN"
 "http://www.w3.org/TR/2001/REC-SVG-20010904/DTD/svg10.dtd">
<svg version="1.0" xmlns="http://www.w3.org/2000/svg"
 width="300.000000pt" height="225.000000pt" viewBox="0 0 300.000000 225.000000"
 preserveAspectRatio="xMidYMid meet">
<metadata>
Created by potrace 1.10, written by Peter Selinger 2001-2011
</metadata>
<g transform="translate(0.000000,225.000000) scale(0.100000,-0.100000)"
fill="#000000" stroke="none">
<path d="M1260 1435 c0 0 -2 -109 -3 -243 l-2 -242 48 0 47 0 0 44 c0 44 -19
76 -21 37 -1 -12 -3 -25 -4 -31 -1 -5 -3 -14 -4 -20 -2 -16 -28 -12 -35 6 -3
9 -6 108 -6 221 l0 204 23 -3 c21 -3 22 -8 24 -88 1 -47 2 -102 2 -122 1 -21
6 -38 11 -38 6 0 10 53 10 138 l0 137 -45 0 c-25 0 -45 0 -45 0z"/>
<path d="M2270 1193 l0 -243 50 0 50 0 0 93 c0 104 12 127 63 127 38 0 47 -26
47 -129 l0 -91 50 0 50 0 0 105 c0 143 -11 163 -107 190 -32 9 -95 -20 -92
-42 2 -10 -6 -31 -16 -47 -14 -21 -22 -54 -25 -105 -3 -47 -10 -76 -17 -79
-27 -8 -34 52 -30 243 4 178 5 190 23 190 21 0 21 0 23 -109 1 -68 3 -77 16
-66 11 10 15 35 15 109 l0 97 -50 0 -50 -1 0 -242z m264 -2 c18 -18 22 -36 24
-115 4 -90 3 -93 -19 -99 -13 -4 -25 -5 -26 -3 -2 2 -6 41 -8 86 -5 99 -25
130 -84 130 -34 1 -35 1 -16 16 28 21 101 13 129 -15z"/>
<path d="M230 1183 l0 -233 50 0 50 0 0 87 c0 96 -10 106 -16 16 -3 -34 -11
-64 -20 -73 -32 -32 -40 6 -39 211 l0 194 90 3 c134 4 184 -29 185 -121 0 -69
-51 -116 -129 -119 -48 -2 -70 -12 -46 -22 36 -13 117 6 151 36 84 74 53 226
-50 243 -17 2 -75 6 -129 7 l-97 3 0 -232z"/>
<path d="M347 1354 c-12 -12 4 -24 34 -24 35 0 69 -31 69 -64 0 -29 -30 -53
-78 -62 -22 -4 -30 -10 -24 -16 15 -15 67 0 96 27 33 31 34 76 4 106 -34 32
-85 48 -101 33z"/>
<path d="M317 1323 c-2 -5 -1 -33 3 -63 l7 -55 2 63 c1 58 -2 73 -12 55z"/>
<path d="M745 1241 c-25 -10 -50 -39 -42 -47 3 -3 16 1 29 10 32 23 68 21 68
-4 0 -16 -5 -19 -30 -14 -23 5 -38 0 -64 -19 -32 -25 -34 -30 -38 -101 -4 -79
-18 -110 -40 -88 -8 8 -12 50 -12 119 l-1 108 38 3 c24 2 37 8 37 18 0 10 -13
14 -50 14 l-50 0 0 -145 0 -145 50 0 50 0 0 88 c0 107 14 128 78 119 38 -5 40
-3 57 35 9 22 15 41 14 43 -10 9 -76 13 -94 6z"/>
<path d="M955 1243 c-67 -18 -110 -87 -103 -165 6 -58 31 -96 79 -121 40 -21
101 -17 130 9 24 22 18 29 -11 14 -12 -6 -42 -12 -66 -12 -38 0 -49 5 -74 34
-30 33 -35 53 -32 118 4 70 83 115 160 92 23 -7 51 -8 74 -3 47 11 48 7 48
-117 0 -96 -8 -130 -28 -118 -13 8 -42 -3 -42 -15 0 -5 21 -9 48 -9 l47 0 0
145 0 145 -47 0 c-36 0 -48 -4 -48 -15 0 -19 -9 -19 -29 -1 -18 16 -77 27
-106 19z"/>
<path d="M1686 1240 c-112 -35 -132 -210 -32 -275 50 -33 141 -26 154 13 3 9
-3 10 -23 2 -14 -5 -44 -10 -66 -10 -124 0 -151 201 -33 240 34 12 60 10 114
-5 l25 -8 -20 21 c-24 24 -78 34 -119 22z"/>
<path d="M2070 1240 c-41 -10 -80 -51 -80 -86 0 -32 37 -69 89 -90 23 -9 41
-23 41 -31 0 -8 5 -11 10 -8 16 10 -13 44 -61 70 -34 18 -45 29 -47 51 -5 49
17 67 87 72 41 3 61 1 61 -7 0 -6 -17 -11 -39 -11 -22 0 -43 -4 -46 -10 -4 -6
7 -10 25 -10 17 0 40 -5 50 -10 16 -9 22 -5 36 21 16 32 9 48 -22 49 -6 0 -24
2 -40 4 -16 3 -45 1 -64 -4z"/>
<path d="M1424 1208 c-53 -58 -67 -78 -57 -78 5 0 29 18 52 40 25 24 51 40 66
40 29 0 32 -13 8 -32 -31 -23 -55 -56 -45 -62 5 -3 37 24 72 59 l64 65 -65 0
c-61 0 -67 -2 -95 -32z"/>
<path d="M1830 1226 c0 -9 12 -16 33 -18 l32 -3 3 -104 c3 -109 -4 -132 -40
-128 -12 1 -23 -4 -25 -10 -3 -9 9 -13 41 -13 l46 0 0 145 0 145 -45 0 c-32 0
-45 -4 -45 -14z"/>
<path d="M985 1178 c-66 -38 -68 -130 -4 -163 42 -22 67 -18 100 14 49 50 37
116 -28 150 -27 14 -42 14 -68 -1z m88 -36 c27 -24 19 -80 -15 -105 -53 -39
-120 11 -102 76 16 54 72 68 117 29z"/>
<path d="M1724 1180 c-78 -31 -66 -157 16 -175 49 -11 109 35 110 83 0 33 -28
78 -57 91 -28 13 -40 13 -69 1z m89 -42 c53 -62 -32 -149 -96 -98 -20 16 -27
30 -27 55 0 66 78 94 123 43z"/>
<path d="M2070 1163 c1 -18 21 -37 61 -58 56 -28 73 -58 53 -97 -8 -15 -25
-30 -38 -34 -41 -10 -129 0 -134 15 -4 11 5 12 41 7 28 -4 48 -3 52 4 4 6 -4
10 -17 10 -14 0 -33 7 -44 15 -28 21 -37 18 -57 -17 -21 -36 -16 -41 47 -59
79 -22 166 11 180 67 13 52 -35 114 -89 114 -8 0 -24 9 -35 20 -11 11 -20 17
-20 13z"/>
<path d="M1438 1084 c6 -11 29 -37 51 -59 23 -21 41 -42 41 -45 0 -3 -11 -6
-24 -5 -14 0 -45 19 -76 48 -70 65 -78 51 -10 -18 53 -54 55 -55 112 -55 32 0
58 2 58 4 0 7 -141 141 -152 145 -7 2 -7 -3 0 -15z"/>
<path d="M2661 1044 c-27 -34 -26 -50 4 -79 29 -30 58 -32 85 -5 39 39 11 110
-44 110 -15 0 -33 -11 -45 -26z m74 -15 c4 -5 4 -21 1 -35 -8 -31 -52 -34 -61
-4 -12 36 41 70 60 39z"/>
</g>
</svg>
