<?xml version="1.0" encoding="UTF-8"?>
<svg version="1.1" xmlns="http://www.w3.org/2000/svg" width="546" height="122">
<path d="M0 0 C180.18 0 360.36 0 546 0 C546 40.26 546 80.52 546 122 C365.82 122 185.64 122 0 122 C0 81.74 0 41.48 0 0 Z " fill="#060606" transform="translate(0,0)"/>
<path d="M0 0 C5.81662241 -0.07458679 11.63296163 -0.12880761 17.44995117 -0.16479492 C19.42558649 -0.17980956 21.40118889 -0.20022751 23.37670898 -0.22631836 C26.22908695 -0.26302572 29.08102129 -0.27979993 31.93359375 -0.29296875 C32.80584091 -0.30845261 33.67808807 -0.32393646 34.57676697 -0.33988953 C41.86336498 -0.34185466 48.1678392 0.8614296 54.0625 5.3125 C57.66457003 10.29515437 56.84154778 17.2323189 56 23 C54.27622737 27.15376048 51.18754476 29.07823193 47.1875 30.875 C46.135625 31.24625 45.08375 31.6175 44 32 C44.9075 32.391875 45.815 32.78375 46.75 33.1875 C50.38333842 35.21378489 51.8263732 36.4632513 54 40 C54.61428011 43.26728441 54.69555814 46.49402126 54.75 49.8125 C54.77964844 50.69615234 54.80929688 51.57980469 54.83984375 52.49023438 C54.9102039 54.65967218 54.95740607 56.82983948 55 59 C56.32 59 57.64 59 59 59 C59.33 57.02 59.66 55.04 60 53 C60.99 53 61.98 53 63 53 C62.54177532 56.46941546 62.10868317 59.67395049 61 63 C53.71194617 66.93554907 47.83678173 66.45727035 40.015625 64.2421875 C36.88856366 62.31504505 36.23390631 60.45493767 35 57 C34.56788516 53.41828013 34.48928223 49.85502984 34.4375 46.25 C34.40314493 44.35919886 34.36058637 42.46852336 34.30859375 40.578125 C34.29626709 39.74700195 34.28394043 38.91587891 34.27124023 38.05957031 C34.18326725 35.77744969 34.18326725 35.77744969 32 34 C29.36 33.67 26.72 33.34 24 33 C24 42.9 24 52.8 24 63 C25.98 63 27.96 63 30 63 C30 63.99 30 64.98 30 66 C20.1 66 10.2 66 0 66 C0 65.34 0 64.68 0 64 C1.98 64 3.96 64 6 64 C6 43.54 6 23.08 6 2 C4.02 2 2.04 2 0 2 C0 1.34 0 0.68 0 0 Z " fill="#E9E9E9" transform="translate(100,25)"/>
<path d="M0 0 C9.24 0 18.48 0 28 0 C28 0.33 28 0.66 28 1 C26.35 1 24.7 1 23 1 C23 10.57 23 20.14 23 30 C29.27 30 35.54 30 42 30 C42 20.43 42 10.86 42 1 C40.35 1 38.7 1 37 1 C37 0.67 37 0.34 37 0 C46.24 0 55.48 0 65 0 C65 0.33 65 0.66 65 1 C63.35 1 61.7 1 60 1 C60 21.13 60 41.26 60 62 C61.65 62 63.3 62 65 62 C65 62.66 65 63.32 65 64 C55.43 64 45.86 64 36 64 C36 63.67 36 63.34 36 63 C37.98 63 39.96 63 42 63 C42 52.77 42 42.54 42 32 C35.73 32 29.46 32 23 32 C23 42.23 23 52.46 23 63 C24.65 63 26.3 63 28 63 C28 63.33 28 63.66 28 64 C18.76 64 9.52 64 0 64 C0 63.67 0 63.34 0 63 C1.65 63 3.3 63 5 63 C5 42.54 5 22.08 5 1 C3.35 1 1.7 1 0 1 C0 0.67 0 0.34 0 0 Z " fill="#FAFAFA" transform="translate(418,26)"/>
<path d="M0 0 C5.32022769 -0.02476651 10.64042162 -0.04289156 15.96069336 -0.05493164 C17.76961858 -0.05995238 19.57853976 -0.06677029 21.38745117 -0.07543945 C23.99138386 -0.08760402 26.59526277 -0.09325098 29.19921875 -0.09765625 C30.00461594 -0.10281754 30.81001312 -0.10797882 31.63981628 -0.11329651 C35.56472601 -0.11368637 39.16699982 0.02915245 43 1 C43 1.66 43 2.32 43 3 C44.0209375 3.061875 44.0209375 3.061875 45.0625 3.125 C49.20299676 4.35833946 52.08197692 6.84665248 55 10 C56.85831345 15.57494036 56.39515146 21.62909127 55.4375 27.375 C53.40054704 31.09465324 50.74633381 33.07641659 47 35 C43.5625 35.8125 43.5625 35.8125 41 36 C41 36.66 41 37.32 41 38 C37 39 37 39 25 39 C25 46.92 25 54.84 25 63 C28.96 63 32.92 63 37 63 C37 63.99 37 64.98 37 66 C24.79 66 12.58 66 0 66 C0 65.34 0 64.68 0 64 C2.31 64 4.62 64 7 64 C7 43.54 7 23.08 7 2 C4.69 2 2.38 2 0 2 C0 1.34 0 0.68 0 0 Z " fill="#DCDCDC" transform="translate(40,25)"/>
<path d="M0 0 C9.57 0 19.14 0 29 0 C29 0.99 29 1.98 29 3 C27.35 3 25.7 3 24 3 C24.33 11.91 24.66 20.82 25 30 C37.5325534 16.95903858 37.5325534 16.95903858 49 3 C47.02 3 45.04 3 43 3 C43 2.01 43 1.02 43 0 C48.61 0 54.22 0 60 0 C60 0.99 60 1.98 60 3 C58.989375 3.02707031 57.97875 3.05414062 56.9375 3.08203125 C51.87006075 3.81379604 49.28764502 7.01417453 46 10.6875 C45.40316406 11.30044922 44.80632812 11.91339844 44.19140625 12.54492188 C43.63324219 13.15271484 43.07507813 13.76050781 42.5 14.38671875 C41.9946875 14.93545654 41.489375 15.48419434 40.96875 16.04956055 C39.51113184 18.98426606 40.18714195 20.88265758 41 24 C42.07774356 26.71442577 42.07774356 26.71442577 43.4765625 29.37890625 C43.97961914 30.37712402 44.48267578 31.3753418 45.00097656 32.40380859 C45.80486816 33.96736084 45.80486816 33.96736084 46.625 35.5625 C47.16608398 36.63064941 47.70716797 37.69879883 48.26464844 38.79931641 C51.68959114 45.53353578 55.19896445 52.21243652 58.890625 58.8046875 C60 61 60 61 60 63 C61.65 63 63.3 63 65 63 C65 63.66 65 64.32 65 65 C55.43 65 45.86 65 36 65 C37.98 64.505 37.98 64.505 40 64 C39.58113525 63.19256348 39.16227051 62.38512695 38.73071289 61.55322266 C37.17818694 58.56028206 35.62579202 55.56727358 34.07348633 52.57421875 C33.40133847 51.278293 32.72913823 49.98239441 32.05688477 48.68652344 C31.0911711 46.82494107 30.12564519 44.96326143 29.16015625 43.1015625 C28.57886963 41.98088379 27.99758301 40.86020508 27.39868164 39.70556641 C26.5901834 38.14163247 25.78734475 36.5746895 25 35 C24.67 44.24 24.34 53.48 24 63 C25.65 63 27.3 63 29 63 C29 63.66 29 64.32 29 65 C19.76 65 10.52 65 1 65 C1 64.67 1 64.34 1 64 C2.65 64 4.3 64 6 64 C6 43.54 6 23.08 6 2 C4.02 2 2.04 2 0 2 C0 1.34 0 0.68 0 0 Z " fill="#F7F7F7" transform="translate(230,25)"/>
<path d="M0 0 C2.64 0 5.28 0 8 0 C12.78798268 12.16099142 17.40076604 24.37794291 21.88183594 36.65527344 C22.89227189 39.42229813 23.90693387 42.18775004 24.921875 44.953125 C25.57056182 46.72647132 26.21900871 48.49990543 26.8671875 50.2734375 C27.16817352 51.09315033 27.46915955 51.91286316 27.77926636 52.75741577 C28.05690826 53.51986603 28.33455017 54.28231628 28.62060547 55.06787109 C28.86374481 55.73305756 29.10688416 56.39824402 29.35739136 57.08358765 C30 59 30 59 30.33621216 61.12075806 C30.95114116 63.55425013 30.95114116 63.55425013 35 65 C25.1 65 15.2 65 5 65 C5 64.67 5 64.34 5 64 C6.98 64 8.96 64 11 64 C9.02 57.73 7.04 51.46 5 45 C-1.27 44.67 -7.54 44.34 -14 44 C-14.33 45.98 -14.66 47.96 -15 50 C-15.80253682 52.31025355 -16.65819751 54.60265016 -17.5625 56.875 C-18.01753906 58.02742188 -18.47257812 59.17984375 -18.94140625 60.3671875 C-19.29074219 61.23601562 -19.64007813 62.10484375 -20 63 C-18.02 63 -16.04 63 -14 63 C-14 63.99 -14 64.98 -14 66 C-18.62 66 -23.24 66 -28 66 C-28 65.01 -28 64.02 -28 63 C-26.35 63 -24.7 63 -23 63 C-22.90074219 62.18144531 -22.80148437 61.36289063 -22.69921875 60.51953125 C-21.86617811 56.3264049 -20.41969854 52.6350127 -18.8125 48.6875 C-16.38684548 42.60370634 -14.07651709 36.50292412 -11.9375 30.3125 C-8.37064034 20.03751223 -4.30726594 9.98675819 0 0 Z " fill="#F6F6F6" transform="translate(325,25)"/>
<path d="M0 0 C2.590228 0.5428758 2.590228 0.5428758 5.4609375 -0.66015625 C5.4609375 5.60984375 5.4609375 11.87984375 5.4609375 18.33984375 C1.86633828 17.14164401 1.59486054 16.31161919 -0.2890625 13.15234375 C-4.42149584 6.70086524 -4.42149584 6.70086524 -10.5390625 2.33984375 C-18.26926474 1.17671037 -18.26926474 1.17671037 -25.37890625 3.60546875 C-27.26437078 6.42414299 -27.39215197 8.7247993 -27.24609375 12.0625 C-26.3107713 15.07516843 -25.1743077 15.88468509 -22.5390625 17.58984375 C-17.32632379 20.29660108 -11.85837608 21.82739601 -6.2434082 23.44848633 C0.65087813 25.5232895 4.21567414 28.29787403 8.3984375 33.96484375 C10.39251002 40.29895645 10.69296074 47.39361091 8.0234375 53.58984375 C4.98668661 58.76316581 -0.1080685 64.332681 -5.9609375 66.05078125 C-13.85916563 66.93634016 -20.91611281 66.44272642 -28.5390625 64.33984375 C-32.03896613 64.141736 -34.2120283 64.23083235 -37.5390625 65.33984375 C-37.5390625 58.40984375 -37.5390625 51.47984375 -37.5390625 44.33984375 C-33.82256695 45.5786756 -33.36444618 46.78334449 -31.2890625 50.02734375 C-27.85886023 55.11074329 -24.10234611 59.55820194 -18.5390625 62.33984375 C-12.8403639 62.9325084 -8.44037661 62.56753841 -3.5390625 59.33984375 C-1.19356576 55.82159864 -0.95914847 54.48208681 -1.5390625 50.33984375 C-6.01489558 44.8409631 -10.95791366 42.33997904 -17.66967773 40.65429688 C-24.98889842 38.81354432 -31.36512688 37.1567905 -35.5390625 30.33984375 C-38.64178245 23.95376604 -38.65162867 16.56043002 -36.3515625 9.90234375 C-26.80590188 -3.5932454 -15.12003629 -3.10102621 0 0 Z " fill="#F6F6F6" transform="translate(402.5390625,25.66015625)"/>
<path d="M0 0 C2.97 0 5.94 0 9 0 C9.24121582 0.67353516 9.48243164 1.34707031 9.73095703 2.04101562 C15.34139794 17.73968126 15.34139794 17.73968126 21.125 33.375 C21.58390625 34.59316406 22.0428125 35.81132813 22.515625 37.06640625 C23.32024979 39.19932693 24.12551232 41.33200244 24.93164062 43.46435547 C25.91763496 46.07860179 26.8968223 48.69532026 27.875 51.3125 C28.1858252 52.13218262 28.49665039 52.95186523 28.81689453 53.79638672 C29.10161621 54.56096191 29.38633789 55.32553711 29.6796875 56.11328125 C29.93476074 56.79173096 30.18983398 57.47018066 30.45263672 58.16918945 C31 60 31 60 31 63 C32.65 63 34.3 63 36 63 C36 63.99 36 64.98 36 66 C25.77 66 15.54 66 5 66 C5 65.01 5 64.02 5 63 C6.98 63 8.96 63 11 63 C10.81824219 62.44538086 10.63648438 61.89076172 10.44921875 61.31933594 C9.62675068 58.79815497 8.81329761 56.27415339 8 53.75 C7.71382812 52.87730469 7.42765625 52.00460938 7.1328125 51.10546875 C6.86210937 50.26113281 6.59140625 49.41679688 6.3125 48.546875 C5.93544922 47.38430176 5.93544922 47.38430176 5.55078125 46.19824219 C5 44 5 44 5 40 C4.34 40 3.68 40 3 40 C2.18479365 37.27161565 1.37275157 34.54235583 0.5625 31.8125 C0.21735352 30.65911133 0.21735352 30.65911133 -0.13476562 29.48242188 C-1.26235986 25.67474859 -2.3168177 21.91848238 -3 18 C-3.66 18 -4.32 18 -5 18 C-4.51030705 11.38914524 -2.66557258 6.05022986 0 0 Z " fill="#F0F0F0" transform="translate(192,25)"/>
<path d="M0 0 C7.59 0 15.18 0 23 0 C23 20.79 23 41.58 23 63 C26.96 63 30.92 63 35 63 C35 63.33 35 63.66 35 64 C23.45 64 11.9 64 0 64 C0 63.67 0 63.34 0 63 C1.98 63 3.96 63 6 63 C6 42.54 6 22.08 6 1 C4.02 1 2.04 1 0 1 C0 0.67 0 0.34 0 0 Z " fill="#FDFDFD" transform="translate(41,26)"/>
<path d="M0 0 C7.92 0 15.84 0 24 0 C24.13068761 21.0261837 23.7887079 41.98806637 23 63 C24.98 63 26.96 63 29 63 C29 63.33 29 63.66 29 64 C19.43 64 9.86 64 0 64 C0 63.67 0 63.34 0 63 C1.98 63 3.96 63 6 63 C6 42.54 6 22.08 6 1 C4.02 1 2.04 1 0 1 C0 0.67 0 0.34 0 0 Z " fill="#FEFEFE" transform="translate(100,26)"/>
<path d="M0 0 C5.61 0 11.22 0 17 0 C17 0.99 17 1.98 17 3 C15.989375 3.02707031 14.97875 3.05414062 13.9375 3.08203125 C8.87006075 3.81379604 6.28764502 7.01417453 3 10.6875 C2.40316406 11.30044922 1.80632812 11.91339844 1.19140625 12.54492188 C0.63324219 13.15271484 0.07507813 13.76050781 -0.5 14.38671875 C-1.0053125 14.93545654 -1.510625 15.48419434 -2.03125 16.04956055 C-3.48886816 18.98426606 -2.81285805 20.88265758 -2 24 C-0.92225644 26.71442577 -0.92225644 26.71442577 0.4765625 29.37890625 C0.97961914 30.37712402 1.48267578 31.3753418 2.00097656 32.40380859 C2.80486816 33.96736084 2.80486816 33.96736084 3.625 35.5625 C4.16608398 36.63064941 4.70716797 37.69879883 5.26464844 38.79931641 C8.68959114 45.53353578 12.19896445 52.21243652 15.890625 58.8046875 C17 61 17 61 17 63 C18.65 63 20.3 63 22 63 C22 63.66 22 64.32 22 65 C12.43 65 2.86 65 -7 65 C-5.02 64.505 -5.02 64.505 -3 64 C-4.95493787 60.20854765 -6.91219091 56.41830248 -8.87158203 52.62915039 C-9.53758204 51.34041607 -10.20295243 50.05135617 -10.86767578 48.76196289 C-11.82418441 46.90685087 -12.78296393 45.0529281 -13.7421875 43.19921875 C-14.3182373 42.08377686 -14.89428711 40.96833496 -15.48779297 39.8190918 C-16.98830448 36.91408249 -16.98830448 36.91408249 -19 34 C-18.67588764 30.68010481 -17.35882606 28.96619189 -15.0859375 26.609375 C-14.49272705 25.98587158 -13.8995166 25.36236816 -13.28833008 24.7199707 C-12.65693115 24.06988037 -12.02553223 23.41979004 -11.375 22.75 C-10.09422026 21.40573997 -8.81426337 20.06069543 -7.53515625 18.71484375 C-6.92172363 18.07272949 -6.30829102 17.43061523 -5.67626953 16.76904297 C-1.51728404 12.37987768 2.40825217 7.863163 6 3 C4.02 3 2.04 3 0 3 C0 2.01 0 1.02 0 0 Z " fill="#F4F4F4" transform="translate(273,25)"/>
<path d="M0 0 C0.33 0.66 0.66 1.32 1 2 C1.66 2 2.32 2 3 2 C4.00981089 4.72588833 5.00803308 7.45512264 6 10.1875 C6.28617188 10.95642578 6.57234375 11.72535156 6.8671875 12.51757812 C8.28784938 16.45822357 9.40963365 19.74151681 9 24 C9.66 24 10.32 24 11 24 C11 25.32 11 26.64 11 28 C4.73 28 -1.54 28 -8 28 C-8.33 30.31 -8.66 32.62 -9 35 C-9.78887274 37.3355806 -10.64288017 39.65024043 -11.5625 41.9375 C-12.01753906 43.08089844 -12.47257813 44.22429687 -12.94140625 45.40234375 C-13.29074219 46.25957031 -13.64007813 47.11679688 -14 48 C-12.02 48 -10.04 48 -8 48 C-8 48.33 -8 48.66 -8 49 C-12.29 49 -16.58 49 -21 49 C-19.02 48.505 -19.02 48.505 -17 48 C-16.90396484 47.36860107 -16.80792969 46.73720215 -16.70898438 46.08666992 C-15.72180462 41.78883465 -14.18432257 37.74510651 -12.65625 33.61328125 C-12.32709595 32.71506149 -11.99794189 31.81684174 -11.65881348 30.8914032 C-10.96452007 28.99883236 -10.26847781 27.10690229 -9.57080078 25.21557617 C-8.50044749 22.3137132 -7.43530734 19.40997891 -6.37109375 16.50585938 C-5.69561458 14.6665557 -5.01984343 12.82735922 -4.34375 10.98828125 C-4.02394165 10.11746414 -3.7041333 9.24664703 -3.37463379 8.34944153 C-3.07762573 7.54488022 -2.78061768 6.74031891 -2.47460938 5.91137695 C-2.2133728 5.2025386 -1.95213623 4.49370026 -1.6829834 3.76338196 C-1 2 -1 2 0 0 Z " fill="#C5C5C5" transform="translate(186,41)"/>
<path d="M0 0 C8 0 8 0 9.97290039 1.65844727 C11.97228923 6.21659758 11.46940196 11.03909857 11.4375 15.9375 C11.45748047 17.02224609 11.47746094 18.10699219 11.49804688 19.22460938 C11.49525386 23.76884417 11.45503578 27.08657437 9.41015625 31.19140625 C7 33 7 33 0 34 C0 22.78 0 11.56 0 0 Z " fill="#090909" transform="translate(65,28)"/>
<path d="M0 0 C10 1 10 1 13 4 C13.29965637 6.72040979 13.41901345 9.16083753 13.375 11.875 C13.38660156 12.58269531 13.39820313 13.29039063 13.41015625 14.01953125 C13.3849826 18.5256143 12.79644029 21.44208771 10 25 C7 27 7 27 0 27 C0 18.09 0 9.18 0 0 Z " fill="#080808" transform="translate(124,28)"/>
<path d="M0 0 C2.590228 0.5428758 2.590228 0.5428758 5.4609375 -0.66015625 C5.4609375 5.60984375 5.4609375 11.87984375 5.4609375 18.33984375 C1.86633828 17.14164401 1.59486054 16.31161919 -0.2890625 13.15234375 C-4.42149584 6.70086524 -4.42149584 6.70086524 -10.5390625 2.33984375 C-18.27505349 1.17631459 -18.27505349 1.17631459 -25.38671875 3.61328125 C-26.75625458 5.66526375 -27.02594195 7.07977309 -27.2265625 9.52734375 C-27.38125 11.41453125 -27.38125 11.41453125 -27.5390625 13.33984375 C-27.8690625 13.33984375 -28.1990625 13.33984375 -28.5390625 13.33984375 C-28.8690625 10.69984375 -29.1990625 8.05984375 -29.5390625 5.33984375 C-32.5090625 7.81484375 -32.5090625 7.81484375 -35.5390625 10.33984375 C-33.58255917 5.5375174 -30.17564547 2.5263664 -26.0390625 -0.47265625 C-17.63377011 -3.32445188 -8.51931642 -1.74725927 0 0 Z " fill="#ECECEC" transform="translate(402.5390625,25.66015625)"/>
<path d="M0 0 C3.71649555 1.23883185 4.17461632 2.44350074 6.25 5.6875 C9.68020227 10.77089954 13.43671639 15.21835819 19 18 C23.73944653 18.31658385 28.38447404 18.19110347 33 17 C33 17.66 33 18.32 33 19 C33.66 19.33 34.32 19.66 35 20 C26.58193153 23.74136377 17.57423863 22.36530721 9 20 C5.50009637 19.80189225 3.3270342 19.8909886 0 21 C0 14.07 0 7.14 0 0 Z " fill="#E7E7E7" transform="translate(365,70)"/>
<path d="M0 0 C2.01171875 0.40625 2.01171875 0.40625 5.07421875 2.40625 C7.35577082 5.93897578 7.4785467 7.58312443 6.64453125 11.6015625 C6.01171875 13.40625 6.01171875 13.40625 4.44921875 15.40625 C0.69071922 16.94819852 -1.9221967 16.85803717 -5.98828125 16.40625 C-7.98828125 14.96875 -7.98828125 14.96875 -8.98828125 12.40625 C-9.95841299 4.72835026 -9.95841299 4.72835026 -7.70703125 1.66015625 C-5.27286959 -0.11567532 -2.94643274 -0.13071051 0 0 Z " fill="#EDEDED" transform="translate(498.98828125,74.59375)"/>
<path d="M0 0 C2.67724855 2.67724855 3.42410074 5.73008299 4.5625 9.25 C4.78357422 9.90613281 5.00464844 10.56226563 5.23242188 11.23828125 C6.53833781 15.20731879 7.30572493 18.83434961 8 23 C3.05 23 -1.9 23 -7 23 C-5.8740681 15.11847673 -5.8740681 15.11847673 -4.84375 12.0703125 C-4.62589844 11.420625 -4.40804687 10.7709375 -4.18359375 10.1015625 C-3.95800781 9.44929688 -3.73242188 8.79703125 -3.5 8.125 C-3.27441406 7.44953125 -3.04882812 6.7740625 -2.81640625 6.078125 C-1.1409337 1.1409337 -1.1409337 1.1409337 0 0 Z " fill="#131313" transform="translate(188,43)"/>
<path d="M0 0 C0.66 0 1.32 0 2 0 C3.00990692 2.91333079 4.00615952 5.83115319 5 8.75 C5.28617187 9.575 5.57234375 10.4 5.8671875 11.25 C6.13789063 12.04921875 6.40859375 12.8484375 6.6875 13.671875 C7.06455078 14.77160645 7.06455078 14.77160645 7.44921875 15.89355469 C8 18 8 18 8 22 C3.05 22 -1.9 22 -7 22 C-5.56006454 14.27670981 -2.94467554 7.2717751 0 0 Z " fill="#0F0F0F" transform="translate(320,44)"/>
<path d="M0 0 C0.33 0.66 0.66 1.32 1 2 C7.6 2 14.2 2 21 2 C21 2.33 21 2.66 21 3 C14.73 3 8.46 3 2 3 C1.67 4.98 1.34 6.96 1 9 C0.19746318 11.31025355 -0.65819751 13.60265016 -1.5625 15.875 C-2.01753906 17.02742188 -2.47257812 18.17984375 -2.94140625 19.3671875 C-3.29074219 20.23601562 -3.64007813 21.10484375 -4 22 C-2.02 22 -0.04 22 2 22 C2 22.99 2 23.98 2 25 C-2.62 25 -7.24 25 -12 25 C-12 24.01 -12 23.02 -12 22 C-10.35 22 -8.7 22 -7 22 C-6.89816406 21.18273437 -6.79632813 20.36546875 -6.69140625 19.5234375 C-5.8706936 15.34104875 -4.48095009 11.5856863 -2.9375 7.625 C-2.65583984 6.88894531 -2.37417969 6.15289062 -2.08398438 5.39453125 C-1.39433382 3.5944264 -0.69786068 1.7969379 0 0 Z " fill="#BABABA" transform="translate(309,66)"/>
<path d="M0 0 C5.61 0 11.22 0 17 0 C17 0.99 17 1.98 17 3 C15.98808594 3.01933594 14.97617187 3.03867187 13.93359375 3.05859375 C8.78928874 3.79349447 6.28710116 7.27516707 3.0625 11.0625 C2.47404297 11.72572266 1.88558594 12.38894531 1.27929688 13.07226562 C-0.16238118 14.70147904 -1.5833306 16.34899431 -3 18 C-3.99 17.67 -4.98 17.34 -6 17 C-4.82630859 15.73542969 -4.82630859 15.73542969 -3.62890625 14.4453125 C-2.60665175 13.33865166 -1.58452284 12.23187479 -0.5625 11.125 C-0.04623047 10.56941406 0.47003906 10.01382813 1.00195312 9.44140625 C3.82104736 6.45250685 3.82104736 6.45250685 6 3 C4.02 3 2.04 3 0 3 C0 2.01 0 1.02 0 0 Z " fill="#AEAEAE" transform="translate(273,25)"/>
<path d="M0 0 C1.5 1.375 1.5 1.375 3 3 C3 3.66 3 4.32 3 5 C2.34 5 1.68 5 1 5 C0.773125 6.216875 0.54625 7.43375 0.3125 8.6875 C-1.08184333 15.05873301 -3.58243817 20.95609542 -6 27 C-1.05 27 3.9 27 9 27 C9.33 26.34 9.66 25.68 10 25 C10 25.99 10 26.98 10 28 C4.39 28 -1.22 28 -7 28 C-8.12487518 20.12587372 -8.12487518 20.12587372 -6.6015625 16.484375 C-6.12976563 15.32035156 -6.12976563 15.32035156 -5.6484375 14.1328125 C-5.31070312 13.34648438 -4.97296875 12.56015625 -4.625 11.75 C-3.97121811 10.16151432 -3.3175668 8.57297489 -2.6640625 6.984375 C-2.36967285 6.29053711 -2.0752832 5.59669922 -1.77197266 4.88183594 C-1.11494579 3.28020307 -0.5474406 1.64232181 0 0 Z " fill="#B6B6B6" transform="translate(319,39)"/>
<path d="M0 0 C0.99 0.66 1.98 1.32 3 2 C1.21142578 2.16435547 1.21142578 2.16435547 -0.61328125 2.33203125 C-2.17975835 2.49149299 -3.74616099 2.65168751 -5.3125 2.8125 C-6.09818359 2.88275391 -6.88386719 2.95300781 -7.69335938 3.02539062 C-8.45068359 3.10595703 -9.20800781 3.18652344 -9.98828125 3.26953125 C-10.68477783 3.33760986 -11.38127441 3.40568848 -12.09887695 3.47583008 C-14.47767666 4.13170307 -15.46063137 5.0992552 -17 7 C-17.57017808 9.04100238 -17.57017808 9.04100238 -17.6875 11.1875 C-17.8421875 13.0746875 -17.8421875 13.0746875 -18 15 C-18.33 15 -18.66 15 -19 15 C-19.33 12.36 -19.66 9.72 -20 7 C-22.97 9.475 -22.97 9.475 -26 12 C-24.04349667 7.19767365 -20.63658297 4.18652265 -16.5 1.1875 C-11.11841086 -0.63839631 -5.63188445 -0.57897878 0 0 Z " fill="#A7A7A7" transform="translate(393,24)"/>
<path d="M0 0 C0.66 0.99 1.32 1.98 2 3 C1.18125581 5.9025516 0.28100633 8.57864688 -0.8125 11.375 C-1.38456638 12.88165572 -1.95365888 14.38944451 -2.51953125 15.8984375 C-2.77839111 16.56536621 -3.03725098 17.23229492 -3.30395508 17.91943359 C-4.19791113 20.44738139 -4.19791113 20.44738139 -5 25 C-0.05 25 4.9 25 10 25 C10 25.33 10 25.66 10 26 C3.73 26 -2.54 26 -9 26 C-6.50556932 17.13091313 -3.29501074 8.59475294 0 0 Z " fill="#B0B0B0" transform="translate(186,41)"/>
<path d="M0 0 C0.33 0.66 0.66 1.32 1 2 C1.66 2 2.32 2 3 2 C2.67 3.32 2.34 4.64 2 6 C3.98 6 5.96 6 8 6 C8 6.99 8 7.98 8 9 C3.38 9 -1.24 9 -6 9 C-6 8.01 -6 7.02 -6 6 C-4.35 6 -2.7 6 -1 6 C-0.67 4.02 -0.34 2.04 0 0 Z " fill="#AAAAAA" transform="translate(303,82)"/>
<path d="M0 0 C0.33 1.32 0.66 2.64 1 4 C-5.6 4 -12.2 4 -19 4 C-18.67 3.01 -18.34 2.02 -18 1 C-12.06 1.33 -6.12 1.66 0 2 C0 1.34 0 0.68 0 0 Z " fill="#C9C9C9" transform="translate(196,65)"/>
<path d="M0 0 C0.66 0.99 1.32 1.98 2 3 C1.32644839 5.67956399 0.57760397 8.11113926 -0.375 10.6875 C-0.6225 11.38939453 -0.87 12.09128906 -1.125 12.81445312 C-1.73796975 14.54727145 -2.36743328 16.27423912 -3 18 C-5 15 -5 15 -4.609375 12.6953125 C-4.18398437 11.42300781 -4.18398437 11.42300781 -3.75 10.125 C-3.31494141 8.80242188 -3.31494141 8.80242188 -2.87109375 7.453125 C-1.9783137 4.93892828 -1.06105563 2.44858992 0 0 Z " fill="#CACACA" transform="translate(186,41)"/>
<path d="M0 0 C0 0.33 0 0.66 0 1 C0.66 1.33 1.32 1.66 2 2 C-3.87883349 4.61281488 -9.70731728 4.18328202 -16 4 C-13.02972634 1.48562881 -10.69159403 0.45635472 -6.875 -0.25 C-5.57175781 -0.50523438 -5.57175781 -0.50523438 -4.2421875 -0.765625 C-2 -1 -2 -1 0 0 Z " fill="#7F7F7F" transform="translate(398,88)"/>
<path d="M0 0 C0.66 0.99 1.32 1.98 2 3 C-0.64 5.64 -3.28 8.28 -6 11 C-6.99 10.67 -7.98 10.34 -9 10 C-6.03 6.7 -3.06 3.4 0 0 Z " fill="#D0D0D0" transform="translate(276,32)"/>
<path d="M0 0 C0.66 0 1.32 0 2 0 C1.67 2.64 1.34 5.28 1 8 C2.98 8 4.96 8 7 8 C7 8.33 7 8.66 7 9 C2.71 9 -1.58 9 -6 9 C-4.68 8.67 -3.36 8.34 -2 8 C-1.855625 7.236875 -1.71125 6.47375 -1.5625 5.6875 C-1 3 -1 3 0 0 Z " fill="#E0E0E0" transform="translate(171,81)"/>
<path d="M0 0 C0.99 0 1.98 0 3 0 C2.54177532 3.46941546 2.10868317 6.67395049 1 10 C0.01 10.33 -0.98 10.66 -2 11 C-2 10.34 -2 9.68 -2 9 C-2.99 8.67 -3.98 8.34 -5 8 C-4.0409375 7.690625 -4.0409375 7.690625 -3.0625 7.375 C-0.65074923 6.10461791 -0.65074923 6.10461791 -0.25 2.875 C-0.1675 1.92625 -0.085 0.9775 0 0 Z " fill="#A9A9A9" transform="translate(160,78)"/>
<path d="M0 0 C0.66 0 1.32 0 2 0 C2 6.27 2 12.54 2 19 C1.34 18.67 0.68 18.34 0 18 C-0.19384179 15.18780295 -0.38036603 12.37545804 -0.5625 9.5625 C-0.61857422 8.76005859 -0.67464844 7.95761719 -0.73242188 7.13085938 C-0.8616295 5.08937889 -0.9351273 3.04453631 -1 1 C-0.67 0.67 -0.34 0.34 0 0 Z " fill="#ABABAB" transform="translate(406,25)"/>
<path d="M0 0 C1.5 1.375 1.5 1.375 3 3 C3 3.66 3 4.32 3 5 C2.34 5 1.68 5 1 5 C0.34 7.97 -0.32 10.94 -1 14 C-3 10 -3 10 -2.5390625 7.421875 C-2.23742187 6.54015625 -1.93578125 5.6584375 -1.625 4.75 C-1.32851563 3.85796875 -1.03203125 2.9659375 -0.7265625 2.046875 C-0.48679687 1.37140625 -0.24703125 0.6959375 0 0 Z " fill="#C2C2C2" transform="translate(319,39)"/>
<path d="M0 0 C0 0.33 0 0.66 0 1 C-0.74765625 1.10957031 -1.4953125 1.21914063 -2.265625 1.33203125 C-3.25046875 1.49058594 -4.2353125 1.64914063 -5.25 1.8125 C-6.22453125 1.96332031 -7.1990625 2.11414063 -8.203125 2.26953125 C-11.12322338 3.03218264 -12.74205815 4.03774101 -15 6 C-14.8125 4.125 -14.8125 4.125 -14 2 C-9.68702099 -0.69561188 -4.90290403 -0.19227075 0 0 Z " fill="#E9E9E9" transform="translate(390,25)"/>
<path d="M0 0 C0.99 0.99 1.98 1.98 3 3 C3 3.66 3 4.32 3 5 C2.34 5 1.68 5 1 5 C1 7.64 1 10.28 1 13 C0.67 13 0.34 13 0 13 C0 8.71 0 4.42 0 0 Z " fill="#272727" transform="translate(254,59)"/>
<path d="M0 0 C0.99 1.32 1.98 2.64 3 4 C-1.43076923 6.09230769 -1.43076923 6.09230769 -4.3125 5.625 C-4.869375 5.41875 -5.42625 5.2125 -6 5 C-5.01 4.67 -4.02 4.34 -3 4 C-1.31461399 2.00334686 -1.31461399 2.00334686 0 0 Z " fill="#D0D0D0" transform="translate(400,84)"/>
</svg>
