<?xml version="1.0" encoding="UTF-8"?>
<svg version="1.1" xmlns="http://www.w3.org/2000/svg" width="1024" height="768">
<path d="M0 0 C337.92 0 675.84 0 1024 0 C1024 253.44 1024 506.88 1024 768 C686.08 768 348.16 768 0 768 C0 514.56 0 261.12 0 0 Z " fill="#FEFEFE" transform="translate(0,0)"/>
<path d="M0 0 C180.18 0 360.36 0 546 0 C546 39.93 546 79.86 546 121 C365.82 121 185.64 121 0 121 C0 81.07 0 41.14 0 0 Z " fill="#020202" transform="translate(212,182)"/>
<path d="M0 0 C5.81662241 -0.07458679 11.63296163 -0.12880761 17.44995117 -0.16479492 C19.42558649 -0.17980956 21.40118889 -0.20022751 23.37670898 -0.22631836 C26.22908695 -0.26302572 29.08102129 -0.27979993 31.93359375 -0.29296875 C32.80584091 -0.30845261 33.67808807 -0.32393646 34.57676697 -0.33988953 C41.85689338 -0.34185292 48.25104865 0.76647703 54 5.4375 C57.21260816 9.55365421 57.34838209 13.64796104 57.28125 18.75 C56.8360568 22.31154562 55.33834335 24.34566431 53 27 C50.4375 28.75 50.4375 28.75 48 30 C47.01 30.66 46.02 31.32 45 32 C46.3921875 32.61875 46.3921875 32.61875 47.8125 33.25 C51.01508115 35.00827985 52.15316699 35.94844591 54 39 C54.43237305 41.38183594 54.43237305 41.38183594 54.51171875 43.984375 C54.54716797 44.91894531 54.58261719 45.85351562 54.61914062 46.81640625 C54.65297852 48.26853516 54.65297852 48.26853516 54.6875 49.75 C54.72166016 50.73355469 54.75582031 51.71710938 54.79101562 52.73046875 C54.87335273 55.15353199 54.94254838 57.57623998 55 60 C56.97445397 59.73595202 56.97445397 59.73595202 59 59 C60.3045656 56.00384054 60.3045656 56.00384054 61 53 C61.66 53 62.32 53 63 53 C62.58634898 58.27405053 61.71026864 61.17729898 58 65 C53.55771081 67.2211446 47.82233308 66.51563221 43 66 C39.31591453 64.42595243 37.4858969 62.11960161 35.8828125 58.42578125 C34.54366844 53.22919123 34.60618113 48.06857134 34.52148438 42.72460938 C34.49505859 41.90412109 34.46863281 41.08363281 34.44140625 40.23828125 C34.42795166 39.49618408 34.41449707 38.75408691 34.40063477 37.98950195 C33.86324008 35.32086741 33.2602109 34.53560283 31 33 C27.535 32.505 27.535 32.505 24 32 C24 42.23 24 52.46 24 63 C25.98 63 27.96 63 30 63 C30 63.66 30 64.32 30 65 C20.1 65 10.2 65 0 65 C0 64.34 0 63.68 0 63 C1.98 63 3.96 63 6 63 C6 42.87 6 22.74 6 2 C4.02 2 2.04 2 0 2 C0 1.34 0 0.68 0 0 Z " fill="#F5F5F5" transform="translate(312,206)"/>
<path d="M0 0 C9.57 0 19.14 0 29 0 C29 0.66 29 1.32 29 2 C27.02 2 25.04 2 23 2 C23 11.57 23 21.14 23 31 C29.27 31 35.54 31 42 31 C42 21.43 42 11.86 42 2 C40.02 2 38.04 2 36 2 C36 1.34 36 0.68 36 0 C45.57 0 55.14 0 65 0 C65 0.66 65 1.32 65 2 C63.35 2 61.7 2 60 2 C60 22.13 60 42.26 60 63 C61.65 63 63.3 63 65 63 C65 63.66 65 64.32 65 65 C55.43 65 45.86 65 36 65 C36 64.34 36 63.68 36 63 C37.98 63 39.96 63 42 63 C42 53.1 42 43.2 42 33 C35.73 33 29.46 33 23 33 C23 42.9 23 52.8 23 63 C24.98 63 26.96 63 29 63 C29 63.66 29 64.32 29 65 C19.43 65 9.86 65 0 65 C0 64.34 0 63.68 0 63 C1.65 63 3.3 63 5 63 C5 42.87 5 22.74 5 2 C3.35 2 1.7 2 0 2 C0 1.34 0 0.68 0 0 Z " fill="#FBFBFB" transform="translate(630,206)"/>
<path d="M0 0 C4.76477752 -0.07505102 9.52919901 -0.12901989 14.29443359 -0.16479492 C15.91005458 -0.17973355 17.5256361 -0.20009201 19.14111328 -0.22631836 C42.76677777 -0.5998177 42.76677777 -0.5998177 50.625 5.375 C54.96033136 10.16668203 55.40526609 14.20255414 55.24609375 20.50390625 C54.7315092 25.72326383 52.95740127 28.9970082 49.375 32.75 C41.57971364 38.5249921 33.38225292 38.29628167 24 38 C24 46.25 24 54.5 24 63 C27.96 63 31.92 63 36 63 C36 63.66 36 64.32 36 65 C24.12 65 12.24 65 0 65 C0 64.34 0 63.68 0 63 C1.98 63 3.96 63 6 63 C6 42.87 6 22.74 6 2 C4.02 2 2.04 2 0 2 C0 1.34 0 0.68 0 0 Z " fill="#FDFDFD" transform="translate(253,206)"/>
<path d="M0 0 C9.24 0 18.48 0 28 0 C28 0.66 28 1.32 28 2 C26.35 2 24.7 2 23 2 C23.33 11.24 23.66 20.48 24 30 C36.39643346 16.84637245 36.39643346 16.84637245 48 3 C45.525 2.505 45.525 2.505 43 2 C43 1.34 43 0.68 43 0 C48.28 0 53.56 0 59 0 C59 0.66 59 1.32 59 2 C57.989375 2.19078125 56.97875 2.3815625 55.9375 2.578125 C51.08006811 3.97365735 48.31943758 7.09030117 45 10.75 C44.40316406 11.3584375 43.80632812 11.966875 43.19140625 12.59375 C42.63324219 13.19703125 42.07507813 13.8003125 41.5 14.421875 C40.9946875 14.96424805 40.489375 15.50662109 39.96875 16.06542969 C38.47709964 19.04421936 39.12935742 20.82109226 40 24 C41.18188358 26.60165483 42.39918384 29.08227307 43.74609375 31.59375 C44.11726822 32.30349976 44.48844269 33.01324951 44.87086487 33.74450684 C46.05190209 36.00056312 47.24384589 38.25059728 48.4375 40.5 C49.62620508 42.75007474 50.81238369 45.00138502 51.99342346 47.25549316 C52.72655293 48.65375934 53.46421786 50.04966013 54.20713806 51.44274902 C56.19225435 55.21809189 57.76868325 58.89534628 59 63 C60.98 63 62.96 63 65 63 C65 63.66 65 64.32 65 65 C55.1 65 45.2 65 35 65 C35 64.34 35 63.68 35 63 C35.99 62.67 36.98 62.34 38 62 C37.11248047 60.33324219 37.11248047 60.33324219 36.20703125 58.6328125 C35.4087907 57.13024205 34.61061724 55.62763595 33.8125 54.125 C33.42513672 53.39796875 33.03777344 52.6709375 32.63867188 51.921875 C29.66620524 46.32086349 26.83792553 40.67585106 24 35 C23.67 44.24 23.34 53.48 23 63 C24.65 63 26.3 63 28 63 C28 63.66 28 64.32 28 65 C18.76 65 9.52 65 0 65 C0 64.34 0 63.68 0 63 C1.65 63 3.3 63 5 63 C5 42.87 5 22.74 5 2 C3.35 2 1.7 2 0 2 C0 1.34 0 0.68 0 0 Z " fill="#FDFDFD" transform="translate(443,206)"/>
<path d="M0 0 C2.64 0 5.28 0 8 0 C10.46646387 5.31238372 12.67712297 10.67935373 14.71875 16.16796875 C14.97657257 16.85863937 15.23439514 17.54931 15.50003052 18.26091003 C18.37099518 25.96869164 21.20211956 33.69098084 24.00683594 41.4230957 C24.5943356 43.04004149 25.18391378 44.65623333 25.77539062 46.27172852 C26.64392481 48.64435008 27.5062519 51.0191436 28.3671875 53.39453125 C28.6327243 54.11631058 28.89826111 54.8380899 29.17184448 55.58174133 C30.23241504 58.5264529 31 60.84399986 31 64 C32.65 64 34.3 64 36 64 C36 64.66 36 65.32 36 66 C25.77 66 15.54 66 5 66 C5 65.34 5 64.68 5 64 C7.31 64 9.62 64 12 64 C9.69 57.73 7.38 51.46 5 45 C-0.94 45 -6.88 45 -13 45 C-13.598125 47.02125 -14.19625 49.0425 -14.8125 51.125 C-16.16342605 55.69019839 -17.76791435 59.79165514 -20 64 C-17.69 64 -15.38 64 -13 64 C-13 64.66 -13 65.32 -13 66 C-17.95 66 -22.9 66 -28 66 C-28 65.34 -28 64.68 -28 64 C-26.35 64 -24.7 64 -23 64 C-22.83759323 63.42649811 -22.67518646 62.85299622 -22.50785828 62.26211548 C-20.43129442 55.12053402 -17.93402792 48.17586208 -15.33203125 41.2109375 C-14.89235519 40.02650055 -14.45267914 38.8420636 -13.99967957 37.62173462 C-12.8429431 34.50731655 -11.68353619 31.39392085 -10.52276611 28.28100586 C-9.3338481 25.09053309 -8.14853165 21.89872293 -6.96289062 18.70703125 C-4.64520559 12.47013088 -2.32398434 6.23455568 0 0 Z " fill="#F8F8F8" transform="translate(404,205)"/>
<path d="M0 0 C2.64 0 5.28 0 8 0 C8.83075485 2.23566754 9.66147946 4.47134632 10.4921875 6.70703125 C10.753983 7.41156433 11.0157785 8.11609741 11.2855072 8.84197998 C12.74013833 12.75693227 14.19418089 16.67210182 15.6472168 20.58764648 C19.49240463 30.94873576 19.49240463 30.94873576 23.35577393 41.30305481 C24.06844404 43.20841187 24.77981762 45.11424743 25.49072266 47.02026367 C26.35890659 49.34691323 27.22959737 51.67262919 28.10302734 53.99731445 C28.48797363 55.03073975 28.87291992 56.06416504 29.26953125 57.12890625 C29.77383667 58.47577515 29.77383667 58.47577515 30.28833008 59.84985352 C31 62 31 62 31 64 C32.65 64 34.3 64 36 64 C36 64.66 36 65.32 36 66 C25.77 66 15.54 66 5 66 C5 65.34 5 64.68 5 64 C6.98 64 8.96 64 11 64 C10.81824219 63.4652002 10.63648438 62.93040039 10.44921875 62.37939453 C9.62968956 59.96230875 8.81479267 57.54368634 8 55.125 C7.71382812 54.28324219 7.42765625 53.44148438 7.1328125 52.57421875 C6.86210938 51.76855469 6.59140625 50.96289062 6.3125 50.1328125 C6.06113281 49.38918457 5.80976562 48.64555664 5.55078125 47.87939453 C5 46 5 46 5 44 C-1.27 44 -7.54 44 -14 44 C-14.495 46.475 -14.495 46.475 -15 49 C-15.82725882 51.61739266 -16.67542293 54.21587384 -17.5625 56.8125 C-17.79646484 57.50537109 -18.03042969 58.19824219 -18.27148438 58.91210938 C-18.84491676 60.60900114 -19.42208169 62.30463078 -20 64 C-18.02 64 -16.04 64 -14 64 C-14 64.66 -14 65.32 -14 66 C-18.62 66 -23.24 66 -28 66 C-28 65.34 -28 64.68 -28 64 C-26.35 64 -24.7 64 -23 64 C-22.66162109 62.19208984 -22.66162109 62.19208984 -22.31640625 60.34765625 C-20.85754989 53.80386225 -18.36534106 47.67194071 -15.9375 41.4375 C-15.4467345 40.16392277 -14.95667212 38.89007438 -14.46728516 37.6159668 C-13.71906216 35.66824307 -12.97039606 33.72070421 -12.21936035 31.77406311 C-9.330693 24.28415294 -6.53140492 16.76101933 -3.73022461 9.23803711 C-3.38354736 8.30999268 -3.03687012 7.38194824 -2.6796875 6.42578125 C-2.37788574 5.61536377 -2.07608398 4.80494629 -1.76513672 3.9699707 C-1 2 -1 2 0 0 Z " fill="#F8F8F8" transform="translate(537,205)"/>
<path d="M0 0 C4.14819963 1.32083219 4.14819963 1.32083219 10.625 -0.0625 C10.625 6.2075 10.625 12.4775 10.625 18.9375 C9.965 18.9375 9.305 18.9375 8.625 18.9375 C7.61040679 17.48086411 6.60471312 16.01680255 5.65649414 14.51611328 C1.00060831 7.0020187 1.00060831 7.0020187 -6.2578125 2.31640625 C-10.35320468 1.58346706 -14.38491094 1.75393895 -18.375 2.9375 C-20.55203142 4.52431401 -21.25431792 5.42951263 -21.87890625 8.05859375 C-21.89824219 8.82300781 -21.91757812 9.58742187 -21.9375 10.375 C-21.98003906 11.13683594 -22.02257812 11.89867187 -22.06640625 12.68359375 C-21.19490357 15.52459401 -19.75697346 16.5225766 -17.24926758 18.01977539 C-13.77554849 19.72066246 -10.13251074 20.82133078 -6.4375 21.9375 C2.04377594 24.51229937 9.0895805 26.73885705 13.625 34.9375 C15.6559276 41.03028281 15.73855753 48.40001391 13.0625 54.3125 C9.740067 59.9677051 4.86770762 63.95655348 -1.375 65.9375 C-9.61024833 66.64456678 -17.55888492 65.8105806 -25.6328125 64.1796875 C-28.70709352 63.6667399 -28.70709352 63.6667399 -32.375 65.9375 C-32.375 58.6775 -32.375 51.4175 -32.375 43.9375 C-31.715 43.9375 -31.055 43.9375 -30.375 43.9375 C-29.04296875 45.73046875 -29.04296875 45.73046875 -27.5625 48.125 C-23.5941117 54.27022266 -18.51272851 60.55825716 -11.375 62.9375 C-5.21459388 63.44245132 -2.35765382 62.94792869 2.625 58.9375 C4.50559033 57.05690967 3.74861218 54.43859962 3.7578125 51.9453125 C3.69626531 49.72975982 3.69626531 49.72975982 2.625 46.9375 C0.47466787 45.81170543 0.47466787 45.81170543 -2.375 44.9375 C-3.671875 44.50520833 -4.96875 44.07291667 -6.265625 43.640625 C-6.97122559 43.40722412 -7.67682617 43.17382324 -8.40380859 42.93334961 C-25.00679958 37.35826306 -25.00679958 37.35826306 -30.375 30.3125 C-32.85997231 24.41069076 -33.48054302 17.93717157 -31.76171875 11.71875 C-29.36506449 6.22861689 -25.46816811 2.95993446 -20.375 -0.0625 C-14.10398152 -2.15283949 -6.33533612 -1.84210166 0 0 Z " fill="#F8F8F8" transform="translate(609.375,206.0625)"/>
<path d="M0 0 C9.9 0 19.8 0 30 0 C30 0.33 30 0.66 30 1 C28.02 1 26.04 1 24 1 C24 10.9 24 20.8 24 31 C25.65 31 27.3 31 29 31 C29 31.33 29 31.66 29 32 C27.35 32 25.7 32 24 32 C24 42.23 24 52.46 24 63 C25.98 63 27.96 63 30 63 C30 63.66 30 64.32 30 65 C20.1 65 10.2 65 0 65 C0 64.34 0 63.68 0 63 C1.98 63 3.96 63 6 63 C6 42.87 6 22.74 6 2 C4.02 2 2.04 2 0 2 C0 1.34 0 0.68 0 0 Z " fill="#FEFEFE" transform="translate(312,206)"/>
<path d="M0 0 C19.18085003 -0.36659499 19.18085003 -0.36659499 26.625 5.375 C30.96033136 10.16668203 31.40526609 14.20255414 31.24609375 20.50390625 C30.7315092 25.72326383 28.95740127 28.9970082 25.375 32.75 C18.10135154 38.15175364 9.81226727 38.74389269 1 38 C0 37 0 37 -0.11352539 33.48999023 C-0.11336626 31.92951578 -0.10767142 30.36903607 -0.09765625 28.80859375 C-0.0962413 27.98875504 -0.09482635 27.16891632 -0.09336853 26.32423401 C-0.08775289 23.69528618 -0.07519779 21.06642227 -0.0625 18.4375 C-0.05748701 16.65950643 -0.05292376 14.88151154 -0.04882812 13.10351562 C-0.03777839 8.73564455 -0.02050331 4.36783652 0 0 Z " fill="#F7F7F7" transform="translate(277,206)"/>
<path d="M0 0 C5.28 0 10.56 0 16 0 C16 0.66 16 1.32 16 2 C14.989375 2.19078125 13.97875 2.3815625 12.9375 2.578125 C8.08006811 3.97365735 5.31943758 7.09030117 2 10.75 C1.40316406 11.3584375 0.80632812 11.966875 0.19140625 12.59375 C-0.36675781 13.19703125 -0.92492187 13.8003125 -1.5 14.421875 C-2.0053125 14.96424805 -2.510625 15.50662109 -3.03125 16.06542969 C-4.52290036 19.04421936 -3.87064258 20.82109226 -3 24 C-1.81811642 26.60165483 -0.60081616 29.08227307 0.74609375 31.59375 C1.11726822 32.30349976 1.48844269 33.01324951 1.87086487 33.74450684 C3.05190209 36.00056312 4.24384589 38.25059728 5.4375 40.5 C6.62620508 42.75007474 7.81238369 45.00138502 8.99342346 47.25549316 C9.72655293 48.65375934 10.46421786 50.04966013 11.20713806 51.44274902 C13.19225435 55.21809189 14.76868325 58.89534628 16 63 C17.98 63 19.96 63 22 63 C22 63.66 22 64.32 22 65 C12.1 65 2.2 65 -8 65 C-8 64.34 -8 63.68 -8 63 C-6.515 62.505 -6.515 62.505 -5 62 C-5.87011719 60.36804688 -5.87011719 60.36804688 -6.7578125 58.703125 C-8.37776658 55.66172022 -9.98482818 52.61386194 -11.5859375 49.5625 C-13.03214238 46.80978699 -14.50678334 44.08064609 -16.0390625 41.375 C-16.60367187 40.34375 -17.16828125 39.3125 -17.75 38.25 C-18.26046875 37.34765625 -18.7709375 36.4453125 -19.296875 35.515625 C-20 33 -20 33 -18.96875 30.53515625 C-16.69951922 27.61307138 -14.28973885 24.87293669 -11.75 22.1875 C-10.76366734 21.12821422 -9.77799053 20.06831737 -8.79296875 19.0078125 C-8.31520996 18.49508789 -7.83745117 17.98236328 -7.34521484 17.45410156 C-3.03780102 12.79802956 1.09484363 7.99860015 5 3 C2.525 2.505 2.525 2.505 0 2 C0 1.34 0 0.68 0 0 Z " fill="#F9F9F9" transform="translate(486,206)"/>
<path d="M0 0 C2.97 0.33 5.94 0.66 9 1 C11.78894054 6.54099034 12.46755606 10.89723809 12.375 17.0625 C12.38660156 17.83916016 12.39820313 18.61582031 12.41015625 19.41601562 C12.38026913 25.29879623 11.30537689 29.69462311 7 34 C4.69 34 2.38 34 0 34 C0 22.78 0 11.56 0 0 Z " fill="#080808" transform="translate(277,208)"/>
<path d="M0 0 C8 0 8 0 10.4375 1.3125 C13.67085577 4.80452423 13.19667385 8.851165 13.25 13.375 C13.28867187 15.33566406 13.28867187 15.33566406 13.328125 17.3359375 C12.89686142 22.15171409 11.36463888 24.63536112 8 28 C5.36 28 2.72 28 0 28 C0 18.76 0 9.52 0 0 Z " fill="#040404" transform="translate(336,208)"/>
<path d="M0 0 C0.66 0 1.32 0 2 0 C3.33203125 1.79296875 3.33203125 1.79296875 4.8125 4.1875 C8.7808883 10.33272266 13.86227149 16.62075716 21 19 C27.27675752 19.51448832 30.0869667 18.93042664 35 15 C35.66 15.33 36.32 15.66 37 16 C36.8125 17.875 36.8125 17.875 36 20 C27.34130762 24.51072135 15.8841607 22.08882049 6.7421875 20.2421875 C3.66790648 19.7292399 3.66790648 19.7292399 0 22 C0 14.74 0 7.48 0 0 Z " fill="#ECECEC" transform="translate(577,250)"/>
<path d="M0 0 C3 2 3 2 5 5 C5.32035831 7.88884515 4.96503736 10.26474073 4 13 C1.65798844 15.88247576 0.20016837 15.97497895 -3.5 16.4375 C-7 16 -7 16 -9.375 14.4375 C-11.5699479 11.14507816 -12.06944397 8.95830645 -12 5 C-8.67361119 0.11436644 -5.79807152 -1.03536991 0 0 Z " fill="#F1F1F1" transform="translate(713,256)"/>
<path d="M0 0 C0.66 0 1.32 0 2 0 C3.17152378 3.45670732 4.33639077 6.91562122 5.5 10.375 C5.83386719 11.35984375 6.16773438 12.3446875 6.51171875 13.359375 C6.98544922 14.77089844 6.98544922 14.77089844 7.46875 16.2109375 C7.76201172 17.08024902 8.05527344 17.94956055 8.35742188 18.84521484 C9 21 9 21 9 23 C3.72 23 -1.56 23 -7 23 C-6.35566405 19.13398431 -5.86949609 16.23477641 -4.58984375 12.6953125 C-4.18862305 11.57382813 -4.18862305 11.57382813 -3.77929688 10.4296875 C-3.50150391 9.66914063 -3.22371094 8.90859375 -2.9375 8.125 C-2.65583984 7.34125 -2.37417969 6.5575 -2.08398438 5.75 C-1.39386218 3.83169424 -0.69755684 1.91561481 0 0 Z " fill="#0D0D0D" transform="translate(532,224)"/>
<path d="M0 0 C2.11340464 2.11340464 2.58435125 3.24985646 3.5078125 6.02734375 C3.90419922 7.21553711 3.90419922 7.21553711 4.30859375 8.42773438 C4.57800781 9.25595703 4.84742188 10.08417969 5.125 10.9375 C5.40214844 11.76185547 5.67929687 12.58621094 5.96484375 13.43554688 C8 19.60618073 8 19.60618073 8 23 C2.72 23 -2.56 23 -8 23 C-1.75 1.75 -1.75 1.75 0 0 Z " fill="#0A0A0A" transform="translate(400,224)"/>
<path d="M0 0 C4.14819963 1.32083219 4.14819963 1.32083219 10.625 -0.0625 C10.625 6.2075 10.625 12.4775 10.625 18.9375 C9.965 18.9375 9.305 18.9375 8.625 18.9375 C7.61040679 17.48086411 6.60471312 16.01680255 5.65649414 14.51611328 C0.99845755 7.0039424 0.99845755 7.0039424 -6.2578125 2.3125 C-11.73282478 1.34275613 -16.74946087 1.85380725 -21.375 4.9375 C-21.705 3.6175 -22.035 2.2975 -22.375 0.9375 C-15.51617548 -2.26922315 -7.22604063 -2.07872402 0 0 Z " fill="#F7F7F7" transform="translate(609.375,206.0625)"/>
<path d="M0 0 C1.98 0.99 3.96 1.98 6 3 C5.01 3.66 4.02 4.32 3 5 C2.67 4.67 2.34 4.34 2 4 C1.79318604 4.59538574 1.58637207 5.19077148 1.37329102 5.80419922 C0.43775366 8.49495283 -0.49984735 11.18498282 -1.4375 13.875 C-1.76298828 14.81214844 -2.08847656 15.74929687 -2.42382812 16.71484375 C-2.73642578 17.61074219 -3.04902344 18.50664062 -3.37109375 19.4296875 C-3.65911865 20.25710449 -3.94714355 21.08452148 -4.24389648 21.93701172 C-5 24 -5 24 -6 26 C2.415 25.505 2.415 25.505 11 25 C11 25.66 11 26.32 11 27 C2.585 27.495 2.585 27.495 -6 28 C-6.5775 29.44375 -7.155 30.8875 -7.75 32.375 C-9.83333333 37.58333333 -11.91666667 42.79166667 -14 48 C-11.69 48 -9.38 48 -7 48 C-7 48.66 -7 49.32 -7 50 C-11.95 50 -16.9 50 -22 50 C-22 49.34 -22 48.68 -22 48 C-20.35 48 -18.7 48 -17 48 C-16.82236618 47.38589264 -16.64473236 46.77178528 -16.4617157 46.1390686 C-14.72861237 40.2425857 -12.79173226 34.46826685 -10.64453125 28.7109375 C-10.33803146 27.88163727 -10.03153168 27.05233704 -9.71574402 26.19790649 C-8.75085873 23.58920019 -7.78176277 20.98208258 -6.8125 18.375 C-6.15141159 16.58994784 -5.49060188 14.80479243 -4.83007812 13.01953125 C-3.22326544 8.67848956 -1.61267859 4.33886577 0 0 Z " fill="#E1E1E1" transform="translate(398,221)"/>
<path d="M0 0 C0.33 0.99 0.66 1.98 1 3 C1.66 3.33 2.32 3.66 3 4 C2.34 4 1.68 4 1 4 C0.89816406 4.80695313 0.79632812 5.61390625 0.69140625 6.4453125 C-0.15018384 10.77213162 -1.55319031 14.74278321 -3.0625 18.875 C-3.34416016 19.65875 -3.62582031 20.4425 -3.91601562 21.25 C-4.60613782 23.16830576 -5.30244316 25.08438519 -6 27 C-0.72 27 4.56 27 10 27 C10 27.33 10 27.66 10 28 C4.06 28 -1.88 28 -8 28 C-8.33 29.98 -8.66 31.96 -9 34 C-9.36148867 35.29950937 -9.75479984 36.59095339 -10.19140625 37.8671875 C-10.41376953 38.52460938 -10.63613281 39.18203125 -10.86523438 39.859375 C-11.09533203 40.52453125 -11.32542969 41.1896875 -11.5625 41.875 C-11.79646484 42.56335938 -12.03042969 43.25171875 -12.27148438 43.9609375 C-12.84352499 45.64203645 -13.42118456 47.32122163 -14 49 C-12.02 49 -10.04 49 -8 49 C-8 49.66 -8 50.32 -8 51 C-12.62 51 -17.24 51 -22 51 C-22 50.34 -22 49.68 -22 49 C-20.35 49 -18.7 49 -17 49 C-16.78085937 47.81148438 -16.56171875 46.62296875 -16.3359375 45.3984375 C-14.81487923 38.56303154 -12.16079206 32.1341985 -9.625 25.625 C-8.89583646 23.73655382 -8.16848138 21.84741852 -7.44134521 19.95819092 C-6.73835348 18.13218924 -6.03374124 16.3068117 -5.32910156 14.48144531 C-3.49423261 9.67519416 -1.73367856 4.84355042 0 0 Z " fill="#E1E1E1" transform="translate(531,220)"/>
<path d="M0 0 C5.28 0 10.56 0 16 0 C16 0.66 16 1.32 16 2 C14.47826172 2.28037109 14.47826172 2.28037109 12.92578125 2.56640625 C8.04877306 3.96281983 5.42514843 7.2011706 2.1875 10.9375 C1.61580078 11.57107422 1.04410156 12.20464844 0.45507812 12.85742188 C-1.90872828 15.49899637 -4.02857246 18.04285868 -6 21 C-7.3153341 21.70151152 -8.65117592 22.36525925 -10 23 C-11.35113205 23.97581759 -12.68946944 24.97029741 -14 26 C-12.60547556 22.87572891 -10.95853655 20.67753347 -8.59375 18.21484375 C-7.60181641 17.17166992 -7.60181641 17.17166992 -6.58984375 16.10742188 C-5.90019531 15.39134766 -5.21054687 14.67527344 -4.5 13.9375 C-3.13348598 12.51096153 -1.76882301 11.08264699 -0.40625 9.65234375 C0.19896484 9.02320068 0.80417969 8.39405762 1.42773438 7.74584961 C3.18493061 5.87927602 3.18493061 5.87927602 5 3 C2.525 2.505 2.525 2.505 0 2 C0 1.34 0 0.68 0 0 Z " fill="#E5E5E5" transform="translate(486,206)"/>
<path d="M0 0 C-0.99 1.65 -1.98 3.3 -3 5 C-3.53367187 4.69964844 -4.06734375 4.39929688 -4.6171875 4.08984375 C-10.62964753 1.02120065 -15.40601435 0.30984483 -22 2 C-22.99 2.66 -23.98 3.32 -25 4 C-25.33 2.68 -25.66 1.36 -26 0 C-17.86635573 -3.80274278 -8.3589563 -2.62241766 0 0 Z " fill="#EAEAEA" transform="translate(613,207)"/>
<path d="M0 0 C1.98 0.99 3.96 1.98 6 3 C5.01 3.66 4.02 4.32 3 5 C2.67 4.67 2.34 4.34 2 4 C0.02 9.61 -1.96 15.22 -4 21 C-4.99 21 -5.98 21 -7 21 C-4.96192707 13.8821847 -2.59655258 6.93292719 0 0 Z " fill="#DEDEDE" transform="translate(398,221)"/>
<path d="M0 0 C0.33 0 0.66 0 1 0 C1 6.27 1 12.54 1 19 C0.34 19 -0.32 19 -1 19 C-1.33 18.01 -1.66 17.02 -2 16 C-1.67 15.67 -1.34 15.34 -1 15 C-0.76346477 12.47403741 -0.57826308 9.96892793 -0.4375 7.4375 C-0.39431641 6.72658203 -0.35113281 6.01566406 -0.30664062 5.28320312 C-0.20028223 3.52238088 -0.09961154 1.7612168 0 0 Z " fill="#ACACAC" transform="translate(619,206)"/>
<path d="M0 0 C0 0.66 0 1.32 0 2 C2.31 2 4.62 2 7 2 C7 2.33 7 2.66 7 3 C2.38 3 -2.24 3 -7 3 C-7 2.34 -7 1.68 -7 1 C-2.25 0 -2.25 0 0 0 Z " fill="#F1F1F1" transform="translate(516,268)"/>
<path d="M0 0 C-1.39796892 2.79593783 -3.13474989 2.95173777 -6 4 C-6.99 4.495 -6.99 4.495 -8 5 C-8.33 3.68 -8.66 2.36 -9 1 C-5.57367167 -0.61798838 -3.61944899 -1.34053666 0 0 Z " fill="#CCCCCC" transform="translate(596,206)"/>
<path d="M0 0 C0.66 0.33 1.32 0.66 2 1 C1.67 2.32 1.34 3.64 1 5 C-1.375 5.625 -1.375 5.625 -4 6 C-4.66 5.34 -5.32 4.68 -6 4 C-4.02 2.68 -2.04 1.36 0 0 Z " fill="#DBDBDB" transform="translate(612,265)"/>
<path d="M0 0 C0.99 0.66 1.98 1.32 3 2 C2.34 3.65 1.68 5.3 1 7 C0.01 7 -0.98 7 -2 7 C-1.34 4.69 -0.68 2.38 0 0 Z " fill="#D7D7D7" transform="translate(393,235)"/>
</svg>
